<svg width="196" height="52" viewBox="0 0 196 52" fill="none" xmlns="http://www.w3.org/2000/svg">
<path d="M185.811 34.1811C183.402 34.1811 181.268 33.6731 179.41 32.6571C177.581 31.6121 176.144 30.1897 175.099 28.3899C174.054 26.5612 173.532 24.4711 173.532 22.1198C173.532 19.7394 174.025 17.6494 175.012 15.8496C175.999 14.0208 177.364 12.5984 179.105 11.5824C180.847 10.5374 182.865 10.0149 185.158 10.0149C187.393 10.0149 189.323 10.5229 190.949 11.5389C192.575 12.5259 193.823 13.9047 194.694 15.6755C195.565 17.4172 196 19.4346 196 21.7279C196 22.2214 195.826 22.6423 195.477 22.9906C195.158 23.31 194.723 23.4696 194.171 23.4696H176.275V20.2474H194.215L192.429 21.5102C192.4 19.9717 192.096 18.5928 191.515 17.3736C190.934 16.1544 190.107 15.1965 189.033 14.4998C187.959 13.8031 186.667 13.4548 185.158 13.4548C183.503 13.4548 182.066 13.8321 180.847 14.5869C179.657 15.3416 178.742 16.3721 178.104 17.6784C177.465 18.9847 177.146 20.4652 177.146 22.1198C177.146 23.7744 177.509 25.2549 178.234 26.5612C178.989 27.8384 180.005 28.8544 181.282 29.6091C182.589 30.3639 184.098 30.7413 185.811 30.7413C186.74 30.7413 187.698 30.5671 188.685 30.2187C189.701 29.8704 190.499 29.464 191.08 28.9995C191.486 28.6802 191.921 28.5206 192.386 28.5206C192.85 28.4916 193.257 28.6222 193.605 28.9125C194.041 29.3189 194.273 29.7688 194.302 30.2623C194.331 30.7267 194.128 31.1331 193.692 31.4815C192.705 32.2653 191.471 32.9184 189.991 33.4409C188.54 33.9344 187.146 34.1811 185.811 34.1811Z" fill="#86E1FB"/>
<path d="M185.811 34.1811C183.402 34.1811 181.268 33.6731 179.41 32.6571C177.581 31.6121 176.144 30.1897 175.099 28.3899C174.054 26.5612 173.532 24.4711 173.532 22.1198C173.532 19.7394 174.025 17.6494 175.012 15.8496C175.999 14.0208 177.364 12.5984 179.105 11.5824C180.847 10.5374 182.865 10.0149 185.158 10.0149C187.393 10.0149 189.323 10.5229 190.949 11.5389C192.575 12.5259 193.823 13.9047 194.694 15.6755C195.565 17.4172 196 19.4346 196 21.7279C196 22.2214 195.826 22.6423 195.477 22.9906C195.158 23.31 194.723 23.4696 194.171 23.4696H176.275V20.2474H194.215L192.429 21.5102C192.4 19.9717 192.096 18.5928 191.515 17.3736C190.934 16.1544 190.107 15.1965 189.033 14.4998C187.959 13.8031 186.667 13.4548 185.158 13.4548C183.503 13.4548 182.066 13.8321 180.847 14.5869C179.657 15.3416 178.742 16.3721 178.104 17.6784C177.465 18.9847 177.146 20.4652 177.146 22.1198C177.146 23.7744 177.509 25.2549 178.234 26.5612C178.989 27.8384 180.005 28.8544 181.282 29.6091C182.589 30.3639 184.098 30.7413 185.811 30.7413C186.74 30.7413 187.698 30.5671 188.685 30.2187C189.701 29.8704 190.499 29.464 191.08 28.9995C191.486 28.6802 191.921 28.5206 192.386 28.5206C192.85 28.4916 193.257 28.6222 193.605 28.9125C194.041 29.3189 194.273 29.7688 194.302 30.2623C194.331 30.7267 194.128 31.1331 193.692 31.4815C192.705 32.2653 191.471 32.9184 189.991 33.4409C188.54 33.9344 187.146 34.1811 185.811 34.1811Z" fill="url(#paint0_linear_25_363)"/>
<path d="M155.311 44.4136C155.05 44.4136 154.745 44.3411 154.397 44.1959C153.235 43.6734 152.916 42.8461 153.439 41.714L167.024 11.3211C167.546 10.218 168.374 9.89871 169.506 10.3632C170.696 10.8566 171.03 11.684 170.507 12.8451L156.878 43.1944C156.53 44.0072 156.008 44.4136 155.311 44.4136ZM160.362 33.136C159.839 33.3683 159.36 33.3973 158.925 33.2231C158.49 33.049 158.141 32.7151 157.88 32.2216L147.996 12.8016C147.734 12.3081 147.691 11.8291 147.865 11.3646C148.068 10.9002 148.431 10.5664 148.954 10.3632C149.447 10.1309 149.912 10.1019 150.347 10.2761C150.812 10.4212 151.16 10.7551 151.392 11.2776L160.928 30.6541C161.218 31.1766 161.32 31.6701 161.233 32.1346C161.146 32.57 160.855 32.9038 160.362 33.136Z" fill="#86E1FB"/>
<path d="M155.311 44.4136C155.05 44.4136 154.745 44.3411 154.397 44.1959C153.235 43.6734 152.916 42.8461 153.439 41.714L167.024 11.3211C167.546 10.218 168.374 9.89871 169.506 10.3632C170.696 10.8566 171.03 11.684 170.507 12.8451L156.878 43.1944C156.53 44.0072 156.008 44.4136 155.311 44.4136ZM160.362 33.136C159.839 33.3683 159.36 33.3973 158.925 33.2231C158.49 33.049 158.141 32.7151 157.88 32.2216L147.996 12.8016C147.734 12.3081 147.691 11.8291 147.865 11.3646C148.068 10.9002 148.431 10.5664 148.954 10.3632C149.447 10.1309 149.912 10.1019 150.347 10.2761C150.812 10.4212 151.16 10.7551 151.392 11.2776L160.928 30.6541C161.218 31.1766 161.32 31.6701 161.233 32.1346C161.146 32.57 160.855 32.9038 160.362 33.136Z" fill="url(#paint1_linear_25_363)"/>
<path d="M122.381 34.0069C121.801 34.0069 121.307 33.8182 120.901 33.4409C120.523 33.0345 120.335 32.541 120.335 31.9604V2.04651C120.335 1.43691 120.523 0.943426 120.901 0.566057C121.307 0.188686 121.801 0 122.381 0H142.367C142.948 0 143.427 0.188686 143.804 0.566057C144.182 0.914398 144.37 1.37885 144.37 1.95942C144.37 2.48194 144.182 2.93188 143.804 3.30925C143.427 3.65759 142.948 3.83177 142.367 3.83177H124.428V14.9787H137.36C137.969 14.9787 138.448 15.1674 138.797 15.5448C139.174 15.8931 139.363 16.3431 139.363 16.8946C139.363 17.4461 139.174 17.9106 138.797 18.288C138.448 18.6363 137.969 18.8105 137.36 18.8105H124.428V30.1752H142.367C142.948 30.1752 143.427 30.3638 143.804 30.7412C144.182 31.0896 144.37 31.525 144.37 32.0475C144.37 32.6281 144.182 33.107 143.804 33.4844C143.427 33.8328 142.948 34.0069 142.367 34.0069H122.381Z" fill="#86E1FB"/>
<path d="M122.381 34.0069C121.801 34.0069 121.307 33.8182 120.901 33.4409C120.523 33.0345 120.335 32.541 120.335 31.9604V2.04651C120.335 1.43691 120.523 0.943426 120.901 0.566057C121.307 0.188686 121.801 0 122.381 0H142.367C142.948 0 143.427 0.188686 143.804 0.566057C144.182 0.914398 144.37 1.37885 144.37 1.95942C144.37 2.48194 144.182 2.93188 143.804 3.30925C143.427 3.65759 142.948 3.83177 142.367 3.83177H124.428V14.9787H137.36C137.969 14.9787 138.448 15.1674 138.797 15.5448C139.174 15.8931 139.363 16.3431 139.363 16.8946C139.363 17.4461 139.174 17.9106 138.797 18.288C138.448 18.6363 137.969 18.8105 137.36 18.8105H124.428V30.1752H142.367C142.948 30.1752 143.427 30.3638 143.804 30.7412C144.182 31.0896 144.37 31.525 144.37 32.0475C144.37 32.6281 144.182 33.107 143.804 33.4844C143.427 33.8328 142.948 34.0069 142.367 34.0069H122.381Z" fill="url(#paint2_linear_25_363)"/>
<path d="M99.1258 34.1811C96.8616 34.1811 94.8151 33.6586 92.9863 32.6136C91.1865 31.5395 89.7496 30.0881 88.6756 28.2593C87.6305 26.4305 87.108 24.3695 87.108 22.0762C87.108 19.7829 87.6015 17.7364 88.5885 15.9367C89.5755 14.1079 90.9253 12.671 92.638 11.6259C94.3507 10.5519 96.2956 10.0148 98.4727 10.0148C100.272 10.0148 101.913 10.3922 103.393 11.147C104.903 11.9017 106.151 12.9177 107.138 14.195V2.00297C107.138 1.39337 107.326 0.914398 107.704 0.566057C108.081 0.188686 108.56 0 109.141 0C109.75 0 110.244 0.188686 110.621 0.566057C110.999 0.914398 111.187 1.39337 111.187 2.00297V22.1633C111.166 23.8386 111.192 29.5188 111.206 32.3601C111.211 33.2957 110.504 34.0655 109.569 34.1031C108.567 34.1434 107.066 34.1811 104.956 34.1811C99.1258 34.1811 104.049 34.1811 99.1258 34.1811ZM99.1258 30.6106C100.693 30.6106 102.087 30.2477 103.306 29.522C104.525 28.7673 105.483 27.7513 106.18 26.474C106.905 25.1677 107.268 23.7018 107.268 22.0762C107.268 20.4506 106.905 18.9992 106.18 17.7219C105.483 16.4447 104.525 15.4432 103.306 14.7175C102.087 13.9627 100.693 13.5854 99.1258 13.5854C97.6164 13.5854 96.2375 13.9627 94.9893 14.7175C93.7411 15.4432 92.7541 16.4447 92.0284 17.7219C91.3317 18.9992 90.9833 20.4506 90.9833 22.0762C90.9833 23.7018 91.3317 25.1677 92.0284 26.474C92.7541 27.7513 93.7411 28.7673 94.9893 29.522C96.2375 30.2477 97.6164 30.6106 99.1258 30.6106Z" fill="#86E1FB"/>
<path d="M99.1258 34.1811C96.8616 34.1811 94.8151 33.6586 92.9863 32.6136C91.1865 31.5395 89.7496 30.0881 88.6756 28.2593C87.6305 26.4305 87.108 24.3695 87.108 22.0762C87.108 19.7829 87.6015 17.7364 88.5885 15.9367C89.5755 14.1079 90.9253 12.671 92.638 11.6259C94.3507 10.5519 96.2956 10.0148 98.4727 10.0148C100.272 10.0148 101.913 10.3922 103.393 11.147C104.903 11.9017 106.151 12.9177 107.138 14.195V2.00297C107.138 1.39337 107.326 0.914398 107.704 0.566057C108.081 0.188686 108.56 0 109.141 0C109.75 0 110.244 0.188686 110.621 0.566057C110.999 0.914398 111.187 1.39337 111.187 2.00297V22.1633C111.166 23.8386 111.192 29.5188 111.206 32.3601C111.211 33.2957 110.504 34.0655 109.569 34.1031C108.567 34.1434 107.066 34.1811 104.956 34.1811C99.1258 34.1811 104.049 34.1811 99.1258 34.1811ZM99.1258 30.6106C100.693 30.6106 102.087 30.2477 103.306 29.522C104.525 28.7673 105.483 27.7513 106.18 26.474C106.905 25.1677 107.268 23.7018 107.268 22.0762C107.268 20.4506 106.905 18.9992 106.18 17.7219C105.483 16.4447 104.525 15.4432 103.306 14.7175C102.087 13.9627 100.693 13.5854 99.1258 13.5854C97.6164 13.5854 96.2375 13.9627 94.9893 14.7175C93.7411 15.4432 92.7541 16.4447 92.0284 17.7219C91.3317 18.9992 90.9833 20.4506 90.9833 22.0762C90.9833 23.7018 91.3317 25.1677 92.0284 26.474C92.7541 27.7513 93.7411 28.7673 94.9893 29.522C96.2375 30.2477 97.6164 30.6106 99.1258 30.6106Z" fill="url(#paint3_linear_25_363)"/>
<path d="M68.1764 34.1811C65.9993 34.1811 64.0544 33.6586 62.3417 32.6136C60.629 31.5686 59.2792 30.1317 58.2922 28.3029C57.3053 26.4741 56.8118 24.413 56.8118 22.1198C56.8118 19.7975 57.3343 17.7365 58.3793 15.9367C59.4534 14.1079 60.8903 12.671 62.69 11.626C64.5188 10.5519 66.5654 10.0149 68.8296 10.0149C71.1228 10.0149 73.1693 10.5519 74.9691 11.626C76.7689 12.671 78.1913 14.1079 79.2363 15.9367C80.3104 17.7655 80.8619 19.8265 80.8909 22.1198L79.3234 22.5117C79.3234 24.7178 79.8314 32.2798 78.8444 34.0505C74.567 34.1811 78.8444 34.0505 74.567 34.1811C68.1764 34.3553 70.2955 34.1811 68.1764 34.1811ZM68.8296 30.6106C70.3971 30.6106 71.7905 30.2478 73.0097 29.5221C74.2289 28.7673 75.1868 27.7513 75.8835 26.4741C76.6092 25.1678 76.9721 23.7164 76.9721 22.1198C76.9721 20.4942 76.6092 19.0428 75.8835 17.7655C75.1868 16.4592 74.2289 15.4432 73.0097 14.7175C71.7905 13.9628 70.3971 13.5854 68.8296 13.5854C67.3201 13.5854 65.9412 13.9628 64.693 14.7175C63.4448 15.4432 62.4578 16.4592 61.7321 17.7655C61.0354 19.0428 60.6871 20.4942 60.6871 22.1198C60.6871 23.7164 61.0354 25.1678 61.7321 26.4741C62.4578 27.7513 63.4448 28.7673 64.693 29.5221C65.9412 30.2478 67.3201 30.6106 68.8296 30.6106ZM78.8444 34.0505C78.2639 34.0505 77.7849 33.8618 77.4075 33.4845C77.0301 33.1071 76.8415 32.6281 76.8415 32.0475V25.0807L77.6688 20.9006L80.8909 22.1198V32.0475C80.8909 32.6281 80.6877 33.1071 80.2813 33.4845C79.904 33.8618 79.425 34.0505 78.8444 34.0505Z" fill="#86E1FB"/>
<path d="M68.1764 34.1811C65.9993 34.1811 64.0544 33.6586 62.3417 32.6136C60.629 31.5686 59.2792 30.1317 58.2922 28.3029C57.3053 26.4741 56.8118 24.413 56.8118 22.1198C56.8118 19.7975 57.3343 17.7365 58.3793 15.9367C59.4534 14.1079 60.8903 12.671 62.69 11.626C64.5188 10.5519 66.5654 10.0149 68.8296 10.0149C71.1228 10.0149 73.1693 10.5519 74.9691 11.626C76.7689 12.671 78.1913 14.1079 79.2363 15.9367C80.3104 17.7655 80.8619 19.8265 80.8909 22.1198L79.3234 22.5117C79.3234 24.7178 79.8314 32.2798 78.8444 34.0505C74.567 34.1811 78.8444 34.0505 74.567 34.1811C68.1764 34.3553 70.2955 34.1811 68.1764 34.1811ZM68.8296 30.6106C70.3971 30.6106 71.7905 30.2478 73.0097 29.5221C74.2289 28.7673 75.1868 27.7513 75.8835 26.4741C76.6092 25.1678 76.9721 23.7164 76.9721 22.1198C76.9721 20.4942 76.6092 19.0428 75.8835 17.7655C75.1868 16.4592 74.2289 15.4432 73.0097 14.7175C71.7905 13.9628 70.3971 13.5854 68.8296 13.5854C67.3201 13.5854 65.9412 13.9628 64.693 14.7175C63.4448 15.4432 62.4578 16.4592 61.7321 17.7655C61.0354 19.0428 60.6871 20.4942 60.6871 22.1198C60.6871 23.7164 61.0354 25.1678 61.7321 26.4741C62.4578 27.7513 63.4448 28.7673 64.693 29.5221C65.9412 30.2478 67.3201 30.6106 68.8296 30.6106ZM78.8444 34.0505C78.2639 34.0505 77.7849 33.8618 77.4075 33.4845C77.0301 33.1071 76.8415 32.6281 76.8415 32.0475V25.0807L77.6688 20.9006L80.8909 22.1198V32.0475C80.8909 32.6281 80.6877 33.1071 80.2813 33.4845C79.904 33.8618 79.425 34.0505 78.8444 34.0505Z" fill="url(#paint4_linear_25_363)"/>
<path d="M38.5333 34.1811C36.211 34.1811 34.1355 33.6731 32.3067 32.6571C30.5069 31.6121 29.0845 30.1897 28.0395 28.3899C27.0235 26.5612 26.5155 24.4711 26.5155 22.1198C26.5155 19.7394 27.0235 17.6494 28.0395 15.8496C29.0845 14.0208 30.5069 12.5984 32.3067 11.5824C34.1355 10.5374 36.211 10.0149 38.5333 10.0149C40.8556 10.0149 42.9166 10.5374 44.7164 11.5824C46.5452 12.5984 47.9676 14.0208 48.9836 15.8496C50.0286 17.6494 50.5656 19.7394 50.5947 22.1198C50.5947 24.4711 50.0722 26.5612 49.0271 28.3899C47.9821 30.1897 46.5597 31.6121 44.7599 32.6571C42.9602 33.6731 40.8846 34.1811 38.5333 34.1811ZM38.5333 30.6106C40.1299 30.6106 41.5378 30.2478 42.757 29.5221C43.9762 28.7964 44.9341 27.7949 45.6308 26.5176C46.3275 25.2404 46.6758 23.7744 46.6758 22.1198C46.6758 20.4652 46.3275 18.9992 45.6308 17.722C44.9341 16.4157 43.9762 15.3997 42.757 14.674C41.5378 13.9483 40.1299 13.5854 38.5333 13.5854C36.9658 13.5854 35.5579 13.9483 34.3097 14.674C33.0905 15.3997 32.1325 16.4157 31.4358 17.722C30.7392 18.9992 30.3908 20.4652 30.3908 22.1198C30.3908 23.7744 30.7392 25.2404 31.4358 26.5176C32.1325 27.7949 33.0905 28.7964 34.3097 29.5221C35.5579 30.2478 36.9658 30.6106 38.5333 30.6106Z" fill="#86E1FB"/>
<path d="M38.5333 34.1811C36.211 34.1811 34.1355 33.6731 32.3067 32.6571C30.5069 31.6121 29.0845 30.1897 28.0395 28.3899C27.0235 26.5612 26.5155 24.4711 26.5155 22.1198C26.5155 19.7394 27.0235 17.6494 28.0395 15.8496C29.0845 14.0208 30.5069 12.5984 32.3067 11.5824C34.1355 10.5374 36.211 10.0149 38.5333 10.0149C40.8556 10.0149 42.9166 10.5374 44.7164 11.5824C46.5452 12.5984 47.9676 14.0208 48.9836 15.8496C50.0286 17.6494 50.5656 19.7394 50.5947 22.1198C50.5947 24.4711 50.0722 26.5612 49.0271 28.3899C47.9821 30.1897 46.5597 31.6121 44.7599 32.6571C42.9602 33.6731 40.8846 34.1811 38.5333 34.1811ZM38.5333 30.6106C40.1299 30.6106 41.5378 30.2478 42.757 29.5221C43.9762 28.7964 44.9341 27.7949 45.6308 26.5176C46.3275 25.2404 46.6758 23.7744 46.6758 22.1198C46.6758 20.4652 46.3275 18.9992 45.6308 17.722C44.9341 16.4157 43.9762 15.3997 42.757 14.674C41.5378 13.9483 40.1299 13.5854 38.5333 13.5854C36.9658 13.5854 35.5579 13.9483 34.3097 14.674C33.0905 15.3997 32.1325 16.4157 31.4358 17.722C30.7392 18.9992 30.3908 20.4652 30.3908 22.1198C30.3908 23.7744 30.7392 25.2404 31.4358 26.5176C32.1325 27.7949 33.0905 28.7964 34.3097 29.5221C35.5579 30.2478 36.9658 30.6106 38.5333 30.6106Z" fill="url(#paint5_linear_25_363)"/>
<path d="M2.04651 34.0069C1.46594 34.0069 0.972456 33.8182 0.566056 33.4409C0.188685 33.0345 0 32.541 0 31.9604V2.04651C0 1.43691 0.188685 0.943426 0.566056 0.566057C0.972456 0.188686 1.46594 0 2.04651 0H10.0148C12.163 0 14.0643 0.449942 15.719 1.34982C17.4026 2.24971 18.7089 3.49794 19.6378 5.09451C20.5957 6.69108 21.0747 8.53439 21.0747 10.6244C21.0747 12.5984 20.5957 14.3546 19.6378 15.8931C18.7089 17.4316 17.4026 18.6363 15.719 19.5072C14.0643 20.378 12.163 20.8135 10.0148 20.8135H4.09302V31.9604C4.09302 32.541 3.90434 33.0345 3.52697 33.4409C3.1496 33.8182 2.65611 34.0069 2.04651 34.0069ZM20.1603 34.0069C19.7829 34.0069 19.4491 33.9344 19.1588 33.7892C18.8685 33.615 18.6073 33.3538 18.3751 33.0054L10.3632 20.1168L14.3691 18.9847L21.7714 30.8718C22.2649 31.6556 22.3375 32.3813 21.9891 33.049C21.6408 33.6876 21.0312 34.0069 20.1603 34.0069ZM4.09302 16.9817H10.0148C11.4082 16.9817 12.6274 16.7204 13.6724 16.1979C14.7465 15.6464 15.5883 14.8916 16.1979 13.9337C16.8075 12.9467 17.1123 11.8436 17.1123 10.6244C17.1123 9.28913 16.8075 8.11347 16.1979 7.09747C15.5883 6.05245 14.7465 5.25416 13.6724 4.70262C12.6274 4.12205 11.4082 3.83177 10.0148 3.83177H4.09302V16.9817Z" fill="#86E1FB"/>
<path d="M2.04651 34.0069C1.46594 34.0069 0.972456 33.8182 0.566056 33.4409C0.188685 33.0345 0 32.541 0 31.9604V2.04651C0 1.43691 0.188685 0.943426 0.566056 0.566057C0.972456 0.188686 1.46594 0 2.04651 0H10.0148C12.163 0 14.0643 0.449942 15.719 1.34982C17.4026 2.24971 18.7089 3.49794 19.6378 5.09451C20.5957 6.69108 21.0747 8.53439 21.0747 10.6244C21.0747 12.5984 20.5957 14.3546 19.6378 15.8931C18.7089 17.4316 17.4026 18.6363 15.719 19.5072C14.0643 20.378 12.163 20.8135 10.0148 20.8135H4.09302V31.9604C4.09302 32.541 3.90434 33.0345 3.52697 33.4409C3.1496 33.8182 2.65611 34.0069 2.04651 34.0069ZM20.1603 34.0069C19.7829 34.0069 19.4491 33.9344 19.1588 33.7892C18.8685 33.615 18.6073 33.3538 18.3751 33.0054L10.3632 20.1168L14.3691 18.9847L21.7714 30.8718C22.2649 31.6556 22.3375 32.3813 21.9891 33.049C21.6408 33.6876 21.0312 34.0069 20.1603 34.0069ZM4.09302 16.9817H10.0148C11.4082 16.9817 12.6274 16.7204 13.6724 16.1979C14.7465 15.6464 15.5883 14.8916 16.1979 13.9337C16.8075 12.9467 17.1123 11.8436 17.1123 10.6244C17.1123 9.28913 16.8075 8.11347 16.1979 7.09747C15.5883 6.05245 14.7465 5.25416 13.6724 4.70262C12.6274 4.12205 11.4082 3.83177 10.0148 3.83177H4.09302V16.9817Z" fill="url(#paint6_linear_25_363)"/>
<path d="M6.07031 46.668C6.07031 47.1758 5.94531 47.6133 5.69531 47.9805C5.44922 48.3477 5.09375 48.6289 4.62891 48.8242C4.16797 49.0195 3.61719 49.1172 2.97656 49.1172C2.66406 49.1172 2.36523 49.0996 2.08008 49.0645C1.79492 49.0293 1.52539 48.9785 1.27148 48.9121C1.02148 48.8418 0.792969 48.7578 0.585938 48.6602V47.3359C0.933594 47.4883 1.32227 47.627 1.75195 47.752C2.18164 47.873 2.61914 47.9336 3.06445 47.9336C3.42773 47.9336 3.72852 47.8867 3.9668 47.793C4.20898 47.6953 4.38867 47.5586 4.50586 47.3828C4.62305 47.2031 4.68164 46.9941 4.68164 46.7559C4.68164 46.502 4.61328 46.2871 4.47656 46.1113C4.33984 45.9355 4.13281 45.7754 3.85547 45.6309C3.58203 45.4824 3.23828 45.3242 2.82422 45.1562C2.54297 45.043 2.27344 44.9141 2.01562 44.7695C1.76172 44.625 1.53516 44.4551 1.33594 44.2598C1.13672 44.0645 0.978516 43.834 0.861328 43.5684C0.748047 43.2988 0.691406 42.9824 0.691406 42.6191C0.691406 42.1348 0.806641 41.7207 1.03711 41.377C1.27148 41.0332 1.59961 40.7695 2.02148 40.5859C2.44727 40.4023 2.94336 40.3105 3.50977 40.3105C3.95898 40.3105 4.38086 40.3574 4.77539 40.4512C5.17383 40.5449 5.56445 40.6777 5.94727 40.8496L5.50195 41.9805C5.15039 41.8359 4.80859 41.7207 4.47656 41.6348C4.14844 41.5488 3.8125 41.5059 3.46875 41.5059C3.17188 41.5059 2.91992 41.5508 2.71289 41.6406C2.50586 41.7305 2.34766 41.8574 2.23828 42.0215C2.13281 42.1816 2.08008 42.373 2.08008 42.5957C2.08008 42.8457 2.14062 43.0566 2.26172 43.2285C2.38672 43.3965 2.57812 43.5508 2.83594 43.6914C3.09766 43.832 3.43359 43.9883 3.84375 44.1602C4.31641 44.3555 4.7168 44.5605 5.04492 44.7754C5.37695 44.9902 5.63086 45.248 5.80664 45.5488C5.98242 45.8457 6.07031 46.2188 6.07031 46.668ZM15.1521 42.3906C15.8787 42.3906 16.4255 42.5781 16.7927 42.9531C17.1638 43.3281 17.3494 43.9297 17.3494 44.7578V49H15.9724V45.0039C15.9724 44.5117 15.8767 44.1406 15.6853 43.8906C15.4939 43.6406 15.2029 43.5156 14.8123 43.5156C14.2654 43.5156 13.8709 43.6914 13.6287 44.043C13.3904 44.3906 13.2712 44.8965 13.2712 45.5605V49H11.8943V45.0039C11.8943 44.6758 11.8513 44.4023 11.7654 44.1836C11.6834 43.9609 11.5564 43.7949 11.3845 43.6855C11.2127 43.5723 10.9959 43.5156 10.7341 43.5156C10.3552 43.5156 10.0525 43.6016 9.82594 43.7734C9.60328 43.9453 9.44312 44.1992 9.34547 44.5352C9.24781 44.8672 9.19898 45.2754 9.19898 45.7598V49H7.82203V42.5137H8.8943L9.08766 43.3867H9.16383C9.29664 43.1602 9.4607 42.9746 9.65602 42.8301C9.85523 42.6816 10.0759 42.5723 10.3181 42.502C10.5603 42.4277 10.8123 42.3906 11.074 42.3906C11.5584 42.3906 11.9666 42.4766 12.2986 42.6484C12.6306 42.8164 12.8787 43.0742 13.0427 43.4219H13.1482C13.3513 43.0703 13.6345 42.8105 13.9978 42.6426C14.3611 42.4746 14.7459 42.3906 15.1521 42.3906ZM22.0542 42.3906C22.8745 42.3906 23.4937 42.5723 23.9116 42.9355C24.3335 43.2988 24.5445 43.8652 24.5445 44.6348V49H23.5659L23.3023 48.0801H23.2554C23.0718 48.3145 22.8823 48.5078 22.687 48.6602C22.4917 48.8125 22.2652 48.9258 22.0073 49C21.7534 49.0781 21.4429 49.1172 21.0757 49.1172C20.689 49.1172 20.3433 49.0469 20.0386 48.9062C19.7339 48.7617 19.4937 48.543 19.3179 48.25C19.1421 47.957 19.0542 47.5859 19.0542 47.1367C19.0542 46.4688 19.3023 45.9668 19.7984 45.6309C20.2984 45.2949 21.0523 45.1094 22.0601 45.0742L23.1851 45.0332V44.6934C23.1851 44.2441 23.0796 43.9238 22.8687 43.7324C22.6616 43.541 22.3687 43.4453 21.9898 43.4453C21.6655 43.4453 21.3511 43.4922 21.0464 43.5859C20.7417 43.6797 20.4448 43.7949 20.1558 43.9316L19.7105 42.959C20.0269 42.791 20.3862 42.6543 20.7886 42.5488C21.1948 42.4434 21.6167 42.3906 22.0542 42.3906ZM23.1792 45.9004L22.3413 45.9297C21.6538 45.9531 21.1714 46.0703 20.8941 46.2812C20.6167 46.4922 20.478 46.7812 20.478 47.1484C20.478 47.4688 20.5737 47.7031 20.7652 47.8516C20.9566 47.9961 21.2085 48.0684 21.521 48.0684C21.9976 48.0684 22.3921 47.9336 22.7046 47.6641C23.021 47.3906 23.1792 46.9902 23.1792 46.4629V45.9004ZM29.9993 42.3906C30.1087 42.3906 30.2278 42.3965 30.3567 42.4082C30.4856 42.4199 30.597 42.4355 30.6907 42.4551L30.5618 43.7441C30.4798 43.7207 30.3782 43.7031 30.2571 43.6914C30.1399 43.6797 30.0345 43.6738 29.9407 43.6738C29.6946 43.6738 29.4602 43.7148 29.2376 43.7969C29.0149 43.875 28.8177 43.9961 28.6458 44.1602C28.4739 44.3203 28.3391 44.5215 28.2415 44.7637C28.1438 45.0059 28.095 45.2871 28.095 45.6074V49H26.7122V42.5137H27.7903L27.9778 43.6562H28.0423C28.1712 43.4258 28.3313 43.2148 28.5227 43.0234C28.7141 42.832 28.9329 42.6797 29.179 42.5664C29.429 42.4492 29.7024 42.3906 29.9993 42.3906ZM34.5459 48.0039C34.7256 48.0039 34.9034 47.9883 35.0791 47.957C35.2549 47.9219 35.4151 47.8809 35.5596 47.834V48.877C35.4073 48.9434 35.21 49 34.9678 49.0469C34.7256 49.0938 34.4737 49.1172 34.212 49.1172C33.8448 49.1172 33.5147 49.0566 33.2217 48.9355C32.9287 48.8105 32.6963 48.5977 32.5245 48.2969C32.3526 47.9961 32.2666 47.5801 32.2666 47.0488V43.5625H31.3819V42.9473L32.3311 42.4609L32.7823 41.0723H33.6495V42.5137H35.5069V43.5625H33.6495V47.0312C33.6495 47.3594 33.7315 47.6035 33.8955 47.7637C34.0596 47.9238 34.2764 48.0039 34.5459 48.0039ZM46.9673 40.4336L43.9732 49H42.4849L39.4908 40.4336H40.9322L42.7369 45.8008C42.7916 45.957 42.8502 46.1465 42.9127 46.3691C42.9791 46.5918 43.0396 46.8164 43.0943 47.043C43.1529 47.2695 43.1978 47.4707 43.2291 47.6465C43.2603 47.4707 43.3033 47.2695 43.358 47.043C43.4166 46.8164 43.4771 46.5918 43.5396 46.3691C43.6021 46.1465 43.6607 45.9551 43.7154 45.7949L45.5259 40.4336H46.9673ZM50.7757 42.3906C51.3538 42.3906 51.8499 42.5098 52.264 42.748C52.678 42.9863 52.9964 43.3242 53.2191 43.7617C53.4417 44.1992 53.553 44.7227 53.553 45.332V46.0703H49.223C49.2386 46.6992 49.4066 47.1836 49.7269 47.5234C50.0511 47.8633 50.5042 48.0332 51.0863 48.0332C51.5003 48.0332 51.8714 47.9941 52.1995 47.916C52.5316 47.834 52.8734 47.7148 53.2249 47.5586V48.6777C52.9007 48.8301 52.5706 48.9414 52.2347 49.0117C51.8988 49.082 51.4964 49.1172 51.0277 49.1172C50.3909 49.1172 49.8304 48.9941 49.346 48.748C48.8655 48.498 48.4886 48.127 48.2152 47.6348C47.9456 47.1426 47.8109 46.5312 47.8109 45.8008C47.8109 45.0742 47.9339 44.457 48.18 43.9492C48.4261 43.4414 48.7718 43.0547 49.2171 42.7891C49.6624 42.5234 50.182 42.3906 50.7757 42.3906ZM50.7757 43.4277C50.3421 43.4277 49.9905 43.5684 49.721 43.8496C49.4554 44.1309 49.2991 44.543 49.2523 45.0859H52.2054C52.2015 44.7617 52.1468 44.4746 52.0413 44.2246C51.9398 43.9746 51.7835 43.7793 51.5726 43.6387C51.3655 43.498 51.0999 43.4277 50.7757 43.4277ZM56.7227 39.8828V42.1738C56.7227 42.4121 56.7149 42.6445 56.6993 42.8711C56.6876 43.0977 56.6739 43.2734 56.6583 43.3984H56.7345C56.8712 43.1719 57.0391 42.9863 57.2384 42.8418C57.4376 42.6934 57.6602 42.582 57.9063 42.5078C58.1563 42.4336 58.422 42.3965 58.7032 42.3965C59.1993 42.3965 59.6212 42.4805 59.9688 42.6484C60.3165 42.8125 60.5821 43.0684 60.7657 43.416C60.9532 43.7637 61.047 44.2148 61.047 44.7695V49H59.67V45.0273C59.67 44.5234 59.5665 44.1465 59.3595 43.8965C59.1524 43.6426 58.8321 43.5156 58.3985 43.5156C57.9805 43.5156 57.6485 43.6035 57.4024 43.7793C57.1602 43.9512 56.9864 44.207 56.8809 44.5469C56.7755 44.8828 56.7227 45.293 56.7227 45.7773V49H55.3458V39.8828H56.7227ZM64.5916 42.5137V49H63.2147V42.5137H64.5916ZM63.912 40.0293C64.1229 40.0293 64.3045 40.0859 64.4569 40.1992C64.6131 40.3125 64.6912 40.5078 64.6912 40.7852C64.6912 41.0586 64.6131 41.2539 64.4569 41.3711C64.3045 41.4844 64.1229 41.541 63.912 41.541C63.6932 41.541 63.5077 41.4844 63.3553 41.3711C63.2069 41.2539 63.1327 41.0586 63.1327 40.7852C63.1327 40.5078 63.2069 40.3125 63.3553 40.1992C63.5077 40.0859 63.6932 40.0293 63.912 40.0293ZM69.4195 49.1172C68.8063 49.1172 68.275 48.998 67.8258 48.7598C67.3766 48.5215 67.0309 48.1562 66.7887 47.6641C66.5465 47.1719 66.4254 46.5469 66.4254 45.7891C66.4254 45 66.5582 44.3555 66.8238 43.8555C67.0895 43.3555 67.4566 42.9863 67.9254 42.748C68.398 42.5098 68.9391 42.3906 69.5484 42.3906C69.9352 42.3906 70.2848 42.4297 70.5973 42.5078C70.9137 42.582 71.1813 42.6738 71.4 42.7832L70.9898 43.8848C70.7516 43.7871 70.5074 43.7051 70.2574 43.6387C70.0074 43.5723 69.7672 43.5391 69.5367 43.5391C69.1578 43.5391 68.8414 43.623 68.5875 43.791C68.3375 43.959 68.15 44.209 68.025 44.541C67.9039 44.873 67.8434 45.2852 67.8434 45.7773C67.8434 46.2539 67.9059 46.6562 68.0309 46.9844C68.1559 47.3086 68.3414 47.5547 68.5875 47.7227C68.8336 47.8867 69.1363 47.9688 69.4957 47.9688C69.8512 47.9688 70.1695 47.9258 70.4508 47.8398C70.732 47.7539 70.9977 47.6426 71.2477 47.5059V48.7012C71.0016 48.8418 70.7379 48.9453 70.4566 49.0117C70.1754 49.082 69.8297 49.1172 69.4195 49.1172ZM74.3939 49H73.0111V39.8828H74.3939V49ZM79.1866 42.3906C79.7648 42.3906 80.2609 42.5098 80.6749 42.748C81.089 42.9863 81.4073 43.3242 81.63 43.7617C81.8527 44.1992 81.964 44.7227 81.964 45.332V46.0703H77.6339C77.6495 46.6992 77.8175 47.1836 78.1378 47.5234C78.462 47.8633 78.9152 48.0332 79.4972 48.0332C79.9112 48.0332 80.2823 47.9941 80.6105 47.916C80.9425 47.834 81.2843 47.7148 81.6359 47.5586V48.6777C81.3116 48.8301 80.9816 48.9414 80.6456 49.0117C80.3097 49.082 79.9073 49.1172 79.4386 49.1172C78.8019 49.1172 78.2413 48.9941 77.757 48.748C77.2765 48.498 76.8995 48.127 76.6261 47.6348C76.3566 47.1426 76.2218 46.5312 76.2218 45.8008C76.2218 45.0742 76.3448 44.457 76.5909 43.9492C76.837 43.4414 77.1827 43.0547 77.628 42.7891C78.0734 42.5234 78.5929 42.3906 79.1866 42.3906ZM79.1866 43.4277C78.753 43.4277 78.4015 43.5684 78.132 43.8496C77.8663 44.1309 77.7101 44.543 77.6632 45.0859H80.6163C80.6124 44.7617 80.5577 44.4746 80.4523 44.2246C80.3507 43.9746 80.1945 43.7793 79.9835 43.6387C79.7765 43.498 79.5109 43.4277 79.1866 43.4277ZM89.7272 49.1172C89.1139 49.1172 88.5827 48.998 88.1334 48.7598C87.6842 48.5215 87.3385 48.1562 87.0963 47.6641C86.8541 47.1719 86.733 46.5469 86.733 45.7891C86.733 45 86.8659 44.3555 87.1315 43.8555C87.3971 43.3555 87.7643 42.9863 88.233 42.748C88.7057 42.5098 89.2467 42.3906 89.8561 42.3906C90.2428 42.3906 90.5924 42.4297 90.9049 42.5078C91.2213 42.582 91.4889 42.6738 91.7077 42.7832L91.2975 43.8848C91.0592 43.7871 90.8151 43.7051 90.5651 43.6387C90.3151 43.5723 90.0748 43.5391 89.8444 43.5391C89.4655 43.5391 89.1491 43.623 88.8952 43.791C88.6452 43.959 88.4577 44.209 88.3327 44.541C88.2116 44.873 88.151 45.2852 88.151 45.7773C88.151 46.2539 88.2135 46.6562 88.3385 46.9844C88.4635 47.3086 88.6491 47.5547 88.8952 47.7227C89.1413 47.8867 89.444 47.9688 89.8034 47.9688C90.1588 47.9688 90.4772 47.9258 90.7584 47.8398C91.0397 47.7539 91.3053 47.6426 91.5553 47.5059V48.7012C91.3092 48.8418 91.0455 48.9453 90.7643 49.0117C90.483 49.082 90.1373 49.1172 89.7272 49.1172ZM94.7016 49H93.3187V39.8828H94.7016V49ZM99.4533 42.3906C100.274 42.3906 100.893 42.5723 101.311 42.9355C101.733 43.2988 101.944 43.8652 101.944 44.6348V49H100.965L100.701 48.0801H100.654C100.471 48.3145 100.281 48.5078 100.086 48.6602C99.8908 48.8125 99.6642 48.9258 99.4064 49C99.1525 49.0781 98.8419 49.1172 98.4748 49.1172C98.088 49.1172 97.7423 49.0469 97.4377 48.9062C97.133 48.7617 96.8927 48.543 96.7169 48.25C96.5412 47.957 96.4533 47.5859 96.4533 47.1367C96.4533 46.4688 96.7013 45.9668 97.1974 45.6309C97.6974 45.2949 98.4513 45.1094 99.4591 45.0742L100.584 45.0332V44.6934C100.584 44.2441 100.479 43.9238 100.268 43.7324C100.061 43.541 99.7677 43.4453 99.3888 43.4453C99.0646 43.4453 98.7502 43.4922 98.4455 43.5859C98.1408 43.6797 97.8439 43.7949 97.5548 43.9316L97.1095 42.959C97.4259 42.791 97.7853 42.6543 98.1877 42.5488C98.5939 42.4434 99.0158 42.3906 99.4533 42.3906ZM100.578 45.9004L99.7404 45.9297C99.0529 45.9531 98.5705 46.0703 98.2931 46.2812C98.0158 46.4922 97.8771 46.7812 97.8771 47.1484C97.8771 47.4688 97.9728 47.7031 98.1642 47.8516C98.3556 47.9961 98.6076 48.0684 98.9201 48.0684C99.3966 48.0684 99.7912 47.9336 100.104 47.6641C100.42 47.3906 100.578 46.9902 100.578 46.4629V45.9004ZM108.471 47.1484C108.471 47.5742 108.367 47.9336 108.16 48.2266C107.953 48.5195 107.65 48.7422 107.252 48.8945C106.857 49.043 106.373 49.1172 105.799 49.1172C105.346 49.1172 104.955 49.084 104.627 49.0176C104.303 48.9551 103.996 48.8574 103.707 48.7246V47.5352C104.016 47.6797 104.361 47.8047 104.744 47.9102C105.131 48.0156 105.496 48.0684 105.84 48.0684C106.293 48.0684 106.619 47.998 106.818 47.8574C107.018 47.7129 107.117 47.5215 107.117 47.2832C107.117 47.1426 107.076 47.0176 106.994 46.9082C106.916 46.7949 106.768 46.6797 106.549 46.5625C106.334 46.4414 106.018 46.2969 105.6 46.1289C105.189 45.9648 104.844 45.8008 104.562 45.6367C104.281 45.4727 104.068 45.2754 103.924 45.0449C103.779 44.8105 103.707 44.5117 103.707 44.1484C103.707 43.5742 103.934 43.1387 104.387 42.8418C104.844 42.541 105.447 42.3906 106.197 42.3906C106.596 42.3906 106.971 42.4316 107.322 42.5137C107.678 42.5918 108.025 42.707 108.365 42.8594L107.932 43.8965C107.639 43.7676 107.344 43.6621 107.047 43.5801C106.754 43.4941 106.455 43.4512 106.15 43.4512C105.795 43.4512 105.523 43.5059 105.336 43.6152C105.152 43.7246 105.06 43.8809 105.06 44.084C105.06 44.2363 105.105 44.3652 105.195 44.4707C105.285 44.5762 105.439 44.6816 105.658 44.7871C105.881 44.8926 106.189 45.0234 106.584 45.1797C106.971 45.3281 107.305 45.4844 107.586 45.6484C107.871 45.8086 108.09 46.0059 108.242 46.2402C108.394 46.4746 108.471 46.7773 108.471 47.1484ZM114.558 47.1484C114.558 47.5742 114.455 47.9336 114.248 48.2266C114.041 48.5195 113.738 48.7422 113.34 48.8945C112.945 49.043 112.461 49.1172 111.886 49.1172C111.433 49.1172 111.043 49.084 110.715 49.0176C110.39 48.9551 110.084 48.8574 109.795 48.7246V47.5352C110.103 47.6797 110.449 47.8047 110.832 47.9102C111.218 48.0156 111.584 48.0684 111.927 48.0684C112.381 48.0684 112.707 47.998 112.906 47.8574C113.105 47.7129 113.205 47.5215 113.205 47.2832C113.205 47.1426 113.164 47.0176 113.082 46.9082C113.004 46.7949 112.855 46.6797 112.636 46.5625C112.422 46.4414 112.105 46.2969 111.687 46.1289C111.277 45.9648 110.931 45.8008 110.65 45.6367C110.369 45.4727 110.156 45.2754 110.011 45.0449C109.867 44.8105 109.795 44.5117 109.795 44.1484C109.795 43.5742 110.021 43.1387 110.474 42.8418C110.931 42.541 111.535 42.3906 112.285 42.3906C112.683 42.3906 113.058 42.4316 113.41 42.5137C113.765 42.5918 114.113 42.707 114.453 42.8594L114.019 43.8965C113.726 43.7676 113.431 43.6621 113.134 43.5801C112.841 43.4941 112.543 43.4512 112.238 43.4512C111.882 43.4512 111.611 43.5059 111.424 43.6152C111.24 43.7246 111.148 43.8809 111.148 44.084C111.148 44.2363 111.193 44.3652 111.283 44.4707C111.373 44.5762 111.527 44.6816 111.746 44.7871C111.968 44.8926 112.277 45.0234 112.672 45.1797C113.058 45.3281 113.392 45.4844 113.674 45.6484C113.959 45.8086 114.177 46.0059 114.33 46.2402C114.482 46.4746 114.558 46.7773 114.558 47.1484ZM117.664 42.5137V49H116.287V42.5137H117.664ZM116.984 40.0293C117.195 40.0293 117.376 40.0859 117.529 40.1992C117.685 40.3125 117.763 40.5078 117.763 40.7852C117.763 41.0586 117.685 41.2539 117.529 41.3711C117.376 41.4844 117.195 41.541 116.984 41.541C116.765 41.541 116.58 41.4844 116.427 41.3711C116.279 41.2539 116.205 41.0586 116.205 40.7852C116.205 40.5078 116.279 40.3125 116.427 40.1992C116.58 40.0859 116.765 40.0293 116.984 40.0293ZM123.118 43.5625H121.542V49H120.165V43.5625H119.105V42.9004L120.165 42.4961V42.0449C120.165 41.4941 120.251 41.0566 120.423 40.7324C120.599 40.4082 120.849 40.1758 121.173 40.0352C121.501 39.8906 121.892 39.8184 122.345 39.8184C122.642 39.8184 122.913 39.8438 123.159 39.8945C123.405 39.9414 123.613 39.9961 123.78 40.0586L123.423 41.1016C123.29 41.0586 123.142 41.0195 122.978 40.9844C122.814 40.9453 122.638 40.9258 122.45 40.9258C122.138 40.9258 121.907 41.0234 121.759 41.2188C121.614 41.4141 121.542 41.6992 121.542 42.0742V42.5137H123.118V43.5625ZM125.597 42.5137V49H124.22V42.5137H125.597ZM124.917 40.0293C125.128 40.0293 125.31 40.0859 125.462 40.1992C125.618 40.3125 125.696 40.5078 125.696 40.7852C125.696 41.0586 125.618 41.2539 125.462 41.3711C125.31 41.4844 125.128 41.541 124.917 41.541C124.698 41.541 124.513 41.4844 124.361 41.3711C124.212 41.2539 124.138 41.0586 124.138 40.7852C124.138 40.5078 124.212 40.3125 124.361 40.1992C124.513 40.0859 124.698 40.0293 124.917 40.0293ZM130.39 42.3906C130.968 42.3906 131.464 42.5098 131.878 42.748C132.292 42.9863 132.61 43.3242 132.833 43.7617C133.056 44.1992 133.167 44.7227 133.167 45.332V46.0703H128.837C128.853 46.6992 129.02 47.1836 129.341 47.5234C129.665 47.8633 130.118 48.0332 130.7 48.0332C131.114 48.0332 131.485 47.9941 131.813 47.916C132.145 47.834 132.487 47.7148 132.839 47.5586V48.6777C132.515 48.8301 132.185 48.9414 131.849 49.0117C131.513 49.082 131.11 49.1172 130.642 49.1172C130.005 49.1172 129.444 48.9941 128.96 48.748C128.479 48.498 128.103 48.127 127.829 47.6348C127.56 47.1426 127.425 46.5312 127.425 45.8008C127.425 45.0742 127.548 44.457 127.794 43.9492C128.04 43.4414 128.386 43.0547 128.831 42.7891C129.276 42.5234 129.796 42.3906 130.39 42.3906ZM130.39 43.4277C129.956 43.4277 129.604 43.5684 129.335 43.8496C129.069 44.1309 128.913 44.543 128.866 45.0859H131.819C131.815 44.7617 131.761 44.4746 131.655 44.2246C131.554 43.9746 131.397 43.7793 131.186 43.6387C130.979 43.498 130.714 43.4277 130.39 43.4277ZM138.247 42.3906C138.356 42.3906 138.475 42.3965 138.604 42.4082C138.733 42.4199 138.844 42.4355 138.938 42.4551L138.809 43.7441C138.727 43.7207 138.626 43.7031 138.505 43.6914C138.387 43.6797 138.282 43.6738 138.188 43.6738C137.942 43.6738 137.708 43.7148 137.485 43.7969C137.262 43.875 137.065 43.9961 136.893 44.1602C136.721 44.3203 136.587 44.5215 136.489 44.7637C136.391 45.0059 136.342 45.2871 136.342 45.6074V49H134.96V42.5137H136.038L136.225 43.6562H136.29C136.419 43.4258 136.579 43.2148 136.77 43.0234C136.962 42.832 137.18 42.6797 137.426 42.5664C137.676 42.4492 137.95 42.3906 138.247 42.3906Z" fill="#B5C2EB"/>
<defs>
<linearGradient id="paint0_linear_25_363" x1="173.532" y1="22.098" x2="196" y2="22.098" gradientUnits="userSpaceOnUse">
<stop stop-color="#6732F4"/>
<stop offset="1" stop-color="#995CF5"/>
</linearGradient>
<linearGradient id="paint1_linear_25_363" x1="147.761" y1="27.2852" x2="170.746" y2="27.2852" gradientUnits="userSpaceOnUse">
<stop stop-color="#6732F4"/>
<stop offset="1" stop-color="#995CF5"/>
</linearGradient>
<linearGradient id="paint2_linear_25_363" x1="120.335" y1="17.0035" x2="144.37" y2="17.0035" gradientUnits="userSpaceOnUse">
<stop stop-color="#6732F4"/>
<stop offset="1" stop-color="#995CF5"/>
</linearGradient>
<linearGradient id="paint3_linear_25_363" x1="87.108" y1="17.0905" x2="111.206" y2="17.0905" gradientUnits="userSpaceOnUse">
<stop stop-color="#6732F4"/>
<stop offset="1" stop-color="#995CF5"/>
</linearGradient>
<linearGradient id="paint4_linear_25_363" x1="56.8118" y1="22.1367" x2="80.8909" y2="22.1367" gradientUnits="userSpaceOnUse">
<stop stop-color="#6732F4"/>
<stop offset="1" stop-color="#995CF5"/>
</linearGradient>
<linearGradient id="paint5_linear_25_363" x1="26.5155" y1="22.098" x2="50.5947" y2="22.098" gradientUnits="userSpaceOnUse">
<stop stop-color="#6732F4"/>
<stop offset="1" stop-color="#995CF5"/>
</linearGradient>
<linearGradient id="paint6_linear_25_363" x1="0" y1="17.0035" x2="22.2053" y2="17.0035" gradientUnits="userSpaceOnUse">
<stop stop-color="#6732F4"/>
<stop offset="1" stop-color="#995CF5"/>
</linearGradient>
</defs>
</svg>
