<svg width="196" height="52" viewBox="0 0 196 52" fill="none" xmlns="http://www.w3.org/2000/svg">
<path d="M185.811 34.1811C183.402 34.1811 181.268 33.6731 179.41 32.6571C177.581 31.6121 176.144 30.1897 175.099 28.3899C174.054 26.5612 173.532 24.4711 173.532 22.1198C173.532 19.7394 174.025 17.6494 175.012 15.8496C175.999 14.0208 177.364 12.5984 179.105 11.5824C180.847 10.5374 182.865 10.0149 185.158 10.0149C187.393 10.0149 189.323 10.5229 190.949 11.5389C192.575 12.5259 193.823 13.9047 194.694 15.6755C195.565 17.4172 196 19.4346 196 21.7279C196 22.2214 195.826 22.6423 195.477 22.9906C195.158 23.31 194.723 23.4696 194.171 23.4696H176.275V20.2474H194.215L192.429 21.5102C192.4 19.9717 192.096 18.5928 191.515 17.3736C190.934 16.1544 190.107 15.1965 189.033 14.4998C187.959 13.8031 186.667 13.4548 185.158 13.4548C183.503 13.4548 182.066 13.8321 180.847 14.5869C179.657 15.3416 178.742 16.3721 178.104 17.6784C177.465 18.9847 177.146 20.4652 177.146 22.1198C177.146 23.7744 177.509 25.2549 178.234 26.5612C178.989 27.8384 180.005 28.8544 181.282 29.6091C182.589 30.3639 184.098 30.7413 185.811 30.7413C186.74 30.7413 187.698 30.5671 188.685 30.2187C189.701 29.8704 190.499 29.464 191.08 28.9995C191.486 28.6802 191.921 28.5206 192.386 28.5206C192.85 28.4916 193.257 28.6222 193.605 28.9125C194.041 29.3189 194.273 29.7688 194.302 30.2623C194.331 30.7267 194.128 31.1331 193.692 31.4815C192.705 32.2653 191.471 32.9184 189.991 33.4409C188.54 33.9344 187.146 34.1811 185.811 34.1811Z" fill="#86E1FB"/>
<path d="M185.811 34.1811C183.402 34.1811 181.268 33.6731 179.41 32.6571C177.581 31.6121 176.144 30.1897 175.099 28.3899C174.054 26.5612 173.532 24.4711 173.532 22.1198C173.532 19.7394 174.025 17.6494 175.012 15.8496C175.999 14.0208 177.364 12.5984 179.105 11.5824C180.847 10.5374 182.865 10.0149 185.158 10.0149C187.393 10.0149 189.323 10.5229 190.949 11.5389C192.575 12.5259 193.823 13.9047 194.694 15.6755C195.565 17.4172 196 19.4346 196 21.7279C196 22.2214 195.826 22.6423 195.477 22.9906C195.158 23.31 194.723 23.4696 194.171 23.4696H176.275V20.2474H194.215L192.429 21.5102C192.4 19.9717 192.096 18.5928 191.515 17.3736C190.934 16.1544 190.107 15.1965 189.033 14.4998C187.959 13.8031 186.667 13.4548 185.158 13.4548C183.503 13.4548 182.066 13.8321 180.847 14.5869C179.657 15.3416 178.742 16.3721 178.104 17.6784C177.465 18.9847 177.146 20.4652 177.146 22.1198C177.146 23.7744 177.509 25.2549 178.234 26.5612C178.989 27.8384 180.005 28.8544 181.282 29.6091C182.589 30.3639 184.098 30.7413 185.811 30.7413C186.74 30.7413 187.698 30.5671 188.685 30.2187C189.701 29.8704 190.499 29.464 191.08 28.9995C191.486 28.6802 191.921 28.5206 192.386 28.5206C192.85 28.4916 193.257 28.6222 193.605 28.9125C194.041 29.3189 194.273 29.7688 194.302 30.2623C194.331 30.7267 194.128 31.1331 193.692 31.4815C192.705 32.2653 191.471 32.9184 189.991 33.4409C188.54 33.9344 187.146 34.1811 185.811 34.1811Z" fill="url(#paint0_linear_25_363)"/>
<path d="M155.311 44.4136C155.05 44.4136 154.745 44.3411 154.397 44.1959C153.235 43.6734 152.916 42.8461 153.439 41.714L167.024 11.3211C167.546 10.218 168.374 9.89871 169.506 10.3632C170.696 10.8566 171.03 11.684 170.507 12.8451L156.878 43.1944C156.53 44.0072 156.008 44.4136 155.311 44.4136ZM160.362 33.136C159.839 33.3683 159.36 33.3973 158.925 33.2231C158.49 33.049 158.141 32.7151 157.88 32.2216L147.996 12.8016C147.734 12.3081 147.691 11.8291 147.865 11.3646C148.068 10.9002 148.431 10.5664 148.954 10.3632C149.447 10.1309 149.912 10.1019 150.347 10.2761C150.812 10.4212 151.16 10.7551 151.392 11.2776L160.928 30.6541C161.218 31.1766 161.32 31.6701 161.233 32.1346C161.146 32.57 160.855 32.9038 160.362 33.136Z" fill="#86E1FB"/>
<path d="M155.311 44.4136C155.05 44.4136 154.745 44.3411 154.397 44.1959C153.235 43.6734 152.916 42.8461 153.439 41.714L167.024 11.3211C167.546 10.218 168.374 9.89871 169.506 10.3632C170.696 10.8566 171.03 11.684 170.507 12.8451L156.878 43.1944C156.53 44.0072 156.008 44.4136 155.311 44.4136ZM160.362 33.136C159.839 33.3683 159.36 33.3973 158.925 33.2231C158.49 33.049 158.141 32.7151 157.88 32.2216L147.996 12.8016C147.734 12.3081 147.691 11.8291 147.865 11.3646C148.068 10.9002 148.431 10.5664 148.954 10.3632C149.447 10.1309 149.912 10.1019 150.347 10.2761C150.812 10.4212 151.16 10.7551 151.392 11.2776L160.928 30.6541C161.218 31.1766 161.32 31.6701 161.233 32.1346C161.146 32.57 160.855 32.9038 160.362 33.136Z" fill="url(#paint1_linear_25_363)"/>
<path d="M122.381 34.0069C121.801 34.0069 121.307 33.8182 120.901 33.4409C120.523 33.0345 120.335 32.541 120.335 31.9604V2.04651C120.335 1.43691 120.523 0.943426 120.901 0.566057C121.307 0.188686 121.801 0 122.381 0H142.367C142.948 0 143.427 0.188686 143.804 0.566057C144.182 0.914398 144.37 1.37885 144.37 1.95942C144.37 2.48194 144.182 2.93188 143.804 3.30925C143.427 3.65759 142.948 3.83177 142.367 3.83177H124.428V14.9787H137.36C137.969 14.9787 138.448 15.1674 138.797 15.5448C139.174 15.8931 139.363 16.3431 139.363 16.8946C139.363 17.4461 139.174 17.9106 138.797 18.288C138.448 18.6363 137.969 18.8105 137.36 18.8105H124.428V30.1752H142.367C142.948 30.1752 143.427 30.3638 143.804 30.7412C144.182 31.0896 144.37 31.525 144.37 32.0475C144.37 32.6281 144.182 33.107 143.804 33.4844C143.427 33.8328 142.948 34.0069 142.367 34.0069H122.381Z" fill="#86E1FB"/>
<path d="M122.381 34.0069C121.801 34.0069 121.307 33.8182 120.901 33.4409C120.523 33.0345 120.335 32.541 120.335 31.9604V2.04651C120.335 1.43691 120.523 0.943426 120.901 0.566057C121.307 0.188686 121.801 0 122.381 0H142.367C142.948 0 143.427 0.188686 143.804 0.566057C144.182 0.914398 144.37 1.37885 144.37 1.95942C144.37 2.48194 144.182 2.93188 143.804 3.30925C143.427 3.65759 142.948 3.83177 142.367 3.83177H124.428V14.9787H137.36C137.969 14.9787 138.448 15.1674 138.797 15.5448C139.174 15.8931 139.363 16.3431 139.363 16.8946C139.363 17.4461 139.174 17.9106 138.797 18.288C138.448 18.6363 137.969 18.8105 137.36 18.8105H124.428V30.1752H142.367C142.948 30.1752 143.427 30.3638 143.804 30.7412C144.182 31.0896 144.37 31.525 144.37 32.0475C144.37 32.6281 144.182 33.107 143.804 33.4844C143.427 33.8328 142.948 34.0069 142.367 34.0069H122.381Z" fill="url(#paint2_linear_25_363)"/>
<path d="M99.1258 34.1811C96.8616 34.1811 94.8151 33.6586 92.9863 32.6136C91.1865 31.5395 89.7496 30.0881 88.6756 28.2593C87.6305 26.4305 87.108 24.3695 87.108 22.0762C87.108 19.7829 87.6015 17.7364 88.5885 15.9367C89.5755 14.1079 90.9253 12.671 92.638 11.6259C94.3507 10.5519 96.2956 10.0148 98.4727 10.0148C100.272 10.0148 101.913 10.3922 103.393 11.147C104.903 11.9017 106.151 12.9177 107.138 14.195V2.00297C107.138 1.39337 107.326 0.914398 107.704 0.566057C108.081 0.188686 108.56 0 109.141 0C109.75 0 110.244 0.188686 110.621 0.566057C110.999 0.914398 111.187 1.39337 111.187 2.00297V22.1633C111.166 23.8386 111.192 29.5188 111.206 32.3601C111.211 33.2957 110.504 34.0655 109.569 34.1031C108.567 34.1434 107.066 34.1811 104.956 34.1811C99.1258 34.1811 104.049 34.1811 99.1258 34.1811ZM99.1258 30.6106C100.693 30.6106 102.087 30.2477 103.306 29.522C104.525 28.7673 105.483 27.7513 106.18 26.474C106.905 25.1677 107.268 23.7018 107.268 22.0762C107.268 20.4506 106.905 18.9992 106.18 17.7219C105.483 16.4447 104.525 15.4432 103.306 14.7175C102.087 13.9627 100.693 13.5854 99.1258 13.5854C97.6164 13.5854 96.2375 13.9627 94.9893 14.7175C93.7411 15.4432 92.7541 16.4447 92.0284 17.7219C91.3317 18.9992 90.9833 20.4506 90.9833 22.0762C90.9833 23.7018 91.3317 25.1677 92.0284 26.474C92.7541 27.7513 93.7411 28.7673 94.9893 29.522C96.2375 30.2477 97.6164 30.6106 99.1258 30.6106Z" fill="#86E1FB"/>
<path d="M99.1258 34.1811C96.8616 34.1811 94.8151 33.6586 92.9863 32.6136C91.1865 31.5395 89.7496 30.0881 88.6756 28.2593C87.6305 26.4305 87.108 24.3695 87.108 22.0762C87.108 19.7829 87.6015 17.7364 88.5885 15.9367C89.5755 14.1079 90.9253 12.671 92.638 11.6259C94.3507 10.5519 96.2956 10.0148 98.4727 10.0148C100.272 10.0148 101.913 10.3922 103.393 11.147C104.903 11.9017 106.151 12.9177 107.138 14.195V2.00297C107.138 1.39337 107.326 0.914398 107.704 0.566057C108.081 0.188686 108.56 0 109.141 0C109.75 0 110.244 0.188686 110.621 0.566057C110.999 0.914398 111.187 1.39337 111.187 2.00297V22.1633C111.166 23.8386 111.192 29.5188 111.206 32.3601C111.211 33.2957 110.504 34.0655 109.569 34.1031C108.567 34.1434 107.066 34.1811 104.956 34.1811C99.1258 34.1811 104.049 34.1811 99.1258 34.1811ZM99.1258 30.6106C100.693 30.6106 102.087 30.2477 103.306 29.522C104.525 28.7673 105.483 27.7513 106.18 26.474C106.905 25.1677 107.268 23.7018 107.268 22.0762C107.268 20.4506 106.905 18.9992 106.18 17.7219C105.483 16.4447 104.525 15.4432 103.306 14.7175C102.087 13.9627 100.693 13.5854 99.1258 13.5854C97.6164 13.5854 96.2375 13.9627 94.9893 14.7175C93.7411 15.4432 92.7541 16.4447 92.0284 17.7219C91.3317 18.9992 90.9833 20.4506 90.9833 22.0762C90.9833 23.7018 91.3317 25.1677 92.0284 26.474C92.7541 27.7513 93.7411 28.7673 94.9893 29.522C96.2375 30.2477 97.6164 30.6106 99.1258 30.6106Z" fill="url(#paint3_linear_25_363)"/>
<path d="M68.1764 34.1811C65.9993 34.1811 64.0544 33.6586 62.3417 32.6136C60.629 31.5686 59.2792 30.1317 58.2922 28.3029C57.3053 26.4741 56.8118 24.413 56.8118 22.1198C56.8118 19.7975 57.3343 17.7365 58.3793 15.9367C59.4534 14.1079 60.8903 12.671 62.69 11.626C64.5188 10.5519 66.5654 10.0149 68.8296 10.0149C71.1228 10.0149 73.1693 10.5519 74.9691 11.626C76.7689 12.671 78.1913 14.1079 79.2363 15.9367C80.3104 17.7655 80.8619 19.8265 80.8909 22.1198L79.3234 22.5117C79.3234 24.7178 79.8314 32.2798 78.8444 34.0505C74.567 34.1811 78.8444 34.0505 74.567 34.1811C68.1764 34.3553 70.2955 34.1811 68.1764 34.1811ZM68.8296 30.6106C70.3971 30.6106 71.7905 30.2478 73.0097 29.5221C74.2289 28.7673 75.1868 27.7513 75.8835 26.4741C76.6092 25.1678 76.9721 23.7164 76.9721 22.1198C76.9721 20.4942 76.6092 19.0428 75.8835 17.7655C75.1868 16.4592 74.2289 15.4432 73.0097 14.7175C71.7905 13.9628 70.3971 13.5854 68.8296 13.5854C67.3201 13.5854 65.9412 13.9628 64.693 14.7175C63.4448 15.4432 62.4578 16.4592 61.7321 17.7655C61.0354 19.0428 60.6871 20.4942 60.6871 22.1198C60.6871 23.7164 61.0354 25.1678 61.7321 26.4741C62.4578 27.7513 63.4448 28.7673 64.693 29.5221C65.9412 30.2478 67.3201 30.6106 68.8296 30.6106ZM78.8444 34.0505C78.2639 34.0505 77.7849 33.8618 77.4075 33.4845C77.0301 33.1071 76.8415 32.6281 76.8415 32.0475V25.0807L77.6688 20.9006L80.8909 22.1198V32.0475C80.8909 32.6281 80.6877 33.1071 80.2813 33.4845C79.904 33.8618 79.425 34.0505 78.8444 34.0505Z" fill="#86E1FB"/>
<path d="M68.1764 34.1811C65.9993 34.1811 64.0544 33.6586 62.3417 32.6136C60.629 31.5686 59.2792 30.1317 58.2922 28.3029C57.3053 26.4741 56.8118 24.413 56.8118 22.1198C56.8118 19.7975 57.3343 17.7365 58.3793 15.9367C59.4534 14.1079 60.8903 12.671 62.69 11.626C64.5188 10.5519 66.5654 10.0149 68.8296 10.0149C71.1228 10.0149 73.1693 10.5519 74.9691 11.626C76.7689 12.671 78.1913 14.1079 79.2363 15.9367C80.3104 17.7655 80.8619 19.8265 80.8909 22.1198L79.3234 22.5117C79.3234 24.7178 79.8314 32.2798 78.8444 34.0505C74.567 34.1811 78.8444 34.0505 74.567 34.1811C68.1764 34.3553 70.2955 34.1811 68.1764 34.1811ZM68.8296 30.6106C70.3971 30.6106 71.7905 30.2478 73.0097 29.5221C74.2289 28.7673 75.1868 27.7513 75.8835 26.4741C76.6092 25.1678 76.9721 23.7164 76.9721 22.1198C76.9721 20.4942 76.6092 19.0428 75.8835 17.7655C75.1868 16.4592 74.2289 15.4432 73.0097 14.7175C71.7905 13.9628 70.3971 13.5854 68.8296 13.5854C67.3201 13.5854 65.9412 13.9628 64.693 14.7175C63.4448 15.4432 62.4578 16.4592 61.7321 17.7655C61.0354 19.0428 60.6871 20.4942 60.6871 22.1198C60.6871 23.7164 61.0354 25.1678 61.7321 26.4741C62.4578 27.7513 63.4448 28.7673 64.693 29.5221C65.9412 30.2478 67.3201 30.6106 68.8296 30.6106ZM78.8444 34.0505C78.2639 34.0505 77.7849 33.8618 77.4075 33.4845C77.0301 33.1071 76.8415 32.6281 76.8415 32.0475V25.0807L77.6688 20.9006L80.8909 22.1198V32.0475C80.8909 32.6281 80.6877 33.1071 80.2813 33.4845C79.904 33.8618 79.425 34.0505 78.8444 34.0505Z" fill="url(#paint4_linear_25_363)"/>
<path d="M38.5333 34.1811C36.211 34.1811 34.1355 33.6731 32.3067 32.6571C30.5069 31.6121 29.0845 30.1897 28.0395 28.3899C27.0235 26.5612 26.5155 24.4711 26.5155 22.1198C26.5155 19.7394 27.0235 17.6494 28.0395 15.8496C29.0845 14.0208 30.5069 12.5984 32.3067 11.5824C34.1355 10.5374 36.211 10.0149 38.5333 10.0149C40.8556 10.0149 42.9166 10.5374 44.7164 11.5824C46.5452 12.5984 47.9676 14.0208 48.9836 15.8496C50.0286 17.6494 50.5656 19.7394 50.5947 22.1198C50.5947 24.4711 50.0722 26.5612 49.0271 28.3899C47.9821 30.1897 46.5597 31.6121 44.7599 32.6571C42.9602 33.6731 40.8846 34.1811 38.5333 34.1811ZM38.5333 30.6106C40.1299 30.6106 41.5378 30.2478 42.757 29.5221C43.9762 28.7964 44.9341 27.7949 45.6308 26.5176C46.3275 25.2404 46.6758 23.7744 46.6758 22.1198C46.6758 20.4652 46.3275 18.9992 45.6308 17.722C44.9341 16.4157 43.9762 15.3997 42.757 14.674C41.5378 13.9483 40.1299 13.5854 38.5333 13.5854C36.9658 13.5854 35.5579 13.9483 34.3097 14.674C33.0905 15.3997 32.1325 16.4157 31.4358 17.722C30.7392 18.9992 30.3908 20.4652 30.3908 22.1198C30.3908 23.7744 30.7392 25.2404 31.4358 26.5176C32.1325 27.7949 33.0905 28.7964 34.3097 29.5221C35.5579 30.2478 36.9658 30.6106 38.5333 30.6106Z" fill="#86E1FB"/>
<path d="M38.5333 34.1811C36.211 34.1811 34.1355 33.6731 32.3067 32.6571C30.5069 31.6121 29.0845 30.1897 28.0395 28.3899C27.0235 26.5612 26.5155 24.4711 26.5155 22.1198C26.5155 19.7394 27.0235 17.6494 28.0395 15.8496C29.0845 14.0208 30.5069 12.5984 32.3067 11.5824C34.1355 10.5374 36.211 10.0149 38.5333 10.0149C40.8556 10.0149 42.9166 10.5374 44.7164 11.5824C46.5452 12.5984 47.9676 14.0208 48.9836 15.8496C50.0286 17.6494 50.5656 19.7394 50.5947 22.1198C50.5947 24.4711 50.0722 26.5612 49.0271 28.3899C47.9821 30.1897 46.5597 31.6121 44.7599 32.6571C42.9602 33.6731 40.8846 34.1811 38.5333 34.1811ZM38.5333 30.6106C40.1299 30.6106 41.5378 30.2478 42.757 29.5221C43.9762 28.7964 44.9341 27.7949 45.6308 26.5176C46.3275 25.2404 46.6758 23.7744 46.6758 22.1198C46.6758 20.4652 46.3275 18.9992 45.6308 17.722C44.9341 16.4157 43.9762 15.3997 42.757 14.674C41.5378 13.9483 40.1299 13.5854 38.5333 13.5854C36.9658 13.5854 35.5579 13.9483 34.3097 14.674C33.0905 15.3997 32.1325 16.4157 31.4358 17.722C30.7392 18.9992 30.3908 20.4652 30.3908 22.1198C30.3908 23.7744 30.7392 25.2404 31.4358 26.5176C32.1325 27.7949 33.0905 28.7964 34.3097 29.5221C35.5579 30.2478 36.9658 30.6106 38.5333 30.6106Z" fill="url(#paint5_linear_25_363)"/>
<path d="M2.04651 34.0069C1.46594 34.0069 0.972456 33.8182 0.566056 33.4409C0.188685 33.0345 0 32.541 0 31.9604V2.04651C0 1.43691 0.188685 0.943426 0.566056 0.566057C0.972456 0.188686 1.46594 0 2.04651 0H10.0148C12.163 0 14.0643 0.449942 15.719 1.34982C17.4026 2.24971 18.7089 3.49794 19.6378 5.09451C20.5957 6.69108 21.0747 8.53439 21.0747 10.6244C21.0747 12.5984 20.5957 14.3546 19.6378 15.8931C18.7089 17.4316 17.4026 18.6363 15.719 19.5072C14.0643 20.378 12.163 20.8135 10.0148 20.8135H4.09302V31.9604C4.09302 32.541 3.90434 33.0345 3.52697 33.4409C3.1496 33.8182 2.65611 34.0069 2.04651 34.0069ZM20.1603 34.0069C19.7829 34.0069 19.4491 33.9344 19.1588 33.7892C18.8685 33.615 18.6073 33.3538 18.3751 33.0054L10.3632 20.1168L14.3691 18.9847L21.7714 30.8718C22.2649 31.6556 22.3375 32.3813 21.9891 33.049C21.6408 33.6876 21.0312 34.0069 20.1603 34.0069ZM4.09302 16.9817H10.0148C11.4082 16.9817 12.6274 16.7204 13.6724 16.1979C14.7465 15.6464 15.5883 14.8916 16.1979 13.9337C16.8075 12.9467 17.1123 11.8436 17.1123 10.6244C17.1123 9.28913 16.8075 8.11347 16.1979 7.09747C15.5883 6.05245 14.7465 5.25416 13.6724 4.70262C12.6274 4.12205 11.4082 3.83177 10.0148 3.83177H4.09302V16.9817Z" fill="#86E1FB"/>
<path d="M2.04651 34.0069C1.46594 34.0069 0.972456 33.8182 0.566056 33.4409C0.188685 33.0345 0 32.541 0 31.9604V2.04651C0 1.43691 0.188685 0.943426 0.566056 0.566057C0.972456 0.188686 1.46594 0 2.04651 0H10.0148C12.163 0 14.0643 0.449942 15.719 1.34982C17.4026 2.24971 18.7089 3.49794 19.6378 5.09451C20.5957 6.69108 21.0747 8.53439 21.0747 10.6244C21.0747 12.5984 20.5957 14.3546 19.6378 15.8931C18.7089 17.4316 17.4026 18.6363 15.719 19.5072C14.0643 20.378 12.163 20.8135 10.0148 20.8135H4.09302V31.9604C4.09302 32.541 3.90434 33.0345 3.52697 33.4409C3.1496 33.8182 2.65611 34.0069 2.04651 34.0069ZM20.1603 34.0069C19.7829 34.0069 19.4491 33.9344 19.1588 33.7892C18.8685 33.615 18.6073 33.3538 18.3751 33.0054L10.3632 20.1168L14.3691 18.9847L21.7714 30.8718C22.2649 31.6556 22.3375 32.3813 21.9891 33.049C21.6408 33.6876 21.0312 34.0069 20.1603 34.0069ZM4.09302 16.9817H10.0148C11.4082 16.9817 12.6274 16.7204 13.6724 16.1979C14.7465 15.6464 15.5883 14.8916 16.1979 13.9337C16.8075 12.9467 17.1123 11.8436 17.1123 10.6244C17.1123 9.28913 16.8075 8.11347 16.1979 7.09747C15.5883 6.05245 14.7465 5.25416 13.6724 4.70262C12.6274 4.12205 11.4082 3.83177 10.0148 3.83177H4.09302V16.9817Z" fill="url(#paint6_linear_25_363)"/>
<defs>
<linearGradient id="paint0_linear_25_363" x1="173.532" y1="22.098" x2="196" y2="22.098" gradientUnits="userSpaceOnUse">
<stop stop-color="#6732F4"/>
<stop offset="1" stop-color="#995CF5"/>
</linearGradient>
<linearGradient id="paint1_linear_25_363" x1="147.761" y1="27.2852" x2="170.746" y2="27.2852" gradientUnits="userSpaceOnUse">
<stop stop-color="#6732F4"/>
<stop offset="1" stop-color="#995CF5"/>
</linearGradient>
<linearGradient id="paint2_linear_25_363" x1="120.335" y1="17.0035" x2="144.37" y2="17.0035" gradientUnits="userSpaceOnUse">
<stop stop-color="#6732F4"/>
<stop offset="1" stop-color="#995CF5"/>
</linearGradient>
<linearGradient id="paint3_linear_25_363" x1="87.108" y1="17.0905" x2="111.206" y2="17.0905" gradientUnits="userSpaceOnUse">
<stop stop-color="#6732F4"/>
<stop offset="1" stop-color="#995CF5"/>
</linearGradient>
<linearGradient id="paint4_linear_25_363" x1="56.8118" y1="22.1367" x2="80.8909" y2="22.1367" gradientUnits="userSpaceOnUse">
<stop stop-color="#6732F4"/>
<stop offset="1" stop-color="#995CF5"/>
</linearGradient>
<linearGradient id="paint5_linear_25_363" x1="26.5155" y1="22.098" x2="50.5947" y2="22.098" gradientUnits="userSpaceOnUse">
<stop stop-color="#6732F4"/>
<stop offset="1" stop-color="#995CF5"/>
</linearGradient>
<linearGradient id="paint6_linear_25_363" x1="0" y1="17.0035" x2="22.2053" y2="17.0035" gradientUnits="userSpaceOnUse">
<stop stop-color="#6732F4"/>
<stop offset="1" stop-color="#995CF5"/>
</linearGradient>
</defs>
</svg>
